<?xml version="1.0"?>
<COLLADA xmlns="http://www.collada.org/2005/11/COLLADASchema" version="1.4.1">
    <asset>
        <contributor>
            <authoring_tool>CINEMA4D 13.016 COLLADA Exporter</authoring_tool>
        </contributor>
        <created>2013-03-09T18:55:58Z</created>
        <modified>2013-03-09T18:55:58Z</modified>
        <unit meter="0.01" name="centimeter"/>
        <up_axis>Y_UP</up_axis>
    </asset>
    <library_images>
        <image id="ID5">
            <init_from>Material_gradient.jpg</init_from>
        </image>
        <image id="ID10">
            <init_from>whiteMarble.jpg</init_from>
        </image>
    </library_images>
    <library_effects>
        <effect id="ID2">
            <profile_COMMON>
                <technique sid="COMMON">
                    <blinn>
                        <diffuse>
                            <color>0.8 0.8 0.8 1</color>
                        </diffuse>
                        <specular>
                            <color>0.2 0.2 0.2 1</color>
                        </specular>
                        <shininess>
                            <float>0.5</float>
                        </shininess>
                    </blinn>
                </technique>
            </profile_COMMON>
        </effect>
        <effect id="ID4">
            <profile_COMMON>
                <newparam sid="ID6">
                    <surface type="2D">
                        <init_from>ID5</init_from>
                    </surface>
                </newparam>
                <newparam sid="ID7">
                    <sampler2D>
                        <source>ID6</source>
                    </sampler2D>
                </newparam>
                <technique sid="COMMON">
                    <blinn>
                        <diffuse>
                            <texture texture="ID7" texcoord="UVSET0"/>
                        </diffuse>
                        <specular>
                            <color>0.35 0.35 0.35 1</color>
                        </specular>
                        <shininess>
                            <float>0.64</float>
                        </shininess>
                    </blinn>
                </technique>
            </profile_COMMON>
        </effect>
        <effect id="ID9">
            <profile_COMMON>
                <newparam sid="ID11">
                    <surface type="2D">
                        <init_from>ID10</init_from>
                    </surface>
                </newparam>
                <newparam sid="ID12">
                    <sampler2D>
                        <source>ID11</source>
                    </sampler2D>
                </newparam>
                <technique sid="COMMON">
                    <blinn>
                        <diffuse>
                            <texture texture="ID12" texcoord="UVSET0"/>
                        </diffuse>
                        <specular>
                            <color>0.2 0.2 0.2 1</color>
                        </specular>
                        <shininess>
                            <float>0.5</float>
                        </shininess>
                    </blinn>
                </technique>
            </profile_COMMON>
        </effect>
    </library_effects>
    <library_materials>
        <material id="ID1" name="Mat">
            <instance_effect url="#ID2"/>
        </material>
        <material id="ID3" name="Mat.1">
            <instance_effect url="#ID4"/>
        </material>
        <material id="ID8" name="Mat">
            <instance_effect url="#ID9"/>
        </material>
    </library_materials>
    <library_geometries>
        <geometry id="ID15">
            <mesh>
                <source id="ID16">
                    <float_array id="ID17" count="69">17.773 39.254 56.5707 -4.70729 -91.4729 -42.4703 69.8706 -1.21188 -11.5274 71.3895 74.2054 19.6725 -53.1634 -21.6174 -52.0744 -16.9011 -69.3345 -54.8387 61.7706 80.2986 31.6486 -49.7221 58.5287 -8.32261 -0.610739 -80.9457 -55.6519 -12.3816 98.2486 2.26641 22.752 -98.2486 -53.5099 58.6606 -47.5851 -20.7379 -71.3895 12.7407 -35.427 19.7373 -93.2306 -56.5707 -64.9786 -9.53947 -43.6011 -65.5911 41.6485 -12.8227 29.625 92.9406 39.2938 30.1143 38.6038 -51.0135 13.9768 81.2639 -31.7574 11.2835 59.7202 -49.7378 -35.2506 23.7865 -50.4302 29.0693 42.8736 -50.8076 45.0068 74.4248 -16.6428</float_array>
                    <technique_common>
                        <accessor count="23" source="#ID17" stride="3">
                            <param name="X" type="float"/>
                            <param name="Y" type="float"/>
                            <param name="Z" type="float"/>
                        </accessor>
                    </technique_common>
                </source>
                <source id="ID18">
                    <float_array id="ID19" count="45">0.159591 -0.613429 0.773457 -0.41699 -0.642604 -0.64279 -0.468902 -0.613348 -0.635559 -0.775431 -0.574048 -0.263014 0.309464 0.228712 0.922997 0.462539 0.533299 -0.708273 -0.427284 0.200497 -0.881606 0.665085 -0.296869 0.685223 -0.587053 -0.422311 0.690668 -0.5901 0.362428 0.721407 0.692241 -0.0240843 -0.721264 0.789688 0.220882 -0.572367 -0.0187937 0.0435848 -0.998873 -0.45603 0.603167 -0.65439 0.31113 0.924446 -0.220448</float_array>
                    <technique_common>
                        <accessor count="15" source="#ID19" stride="3">
                            <param name="X" type="float"/>
                            <param name="Y" type="float"/>
                            <param name="Z" type="float"/>
                        </accessor>
                    </technique_common>
                </source>
                <source id="ID20">
                    <float_array id="ID21" count="94">0.793303 0.262074 0.61376 0.00875711 0.476464 0.0426357 0.588865 0.69627 0.401313 0.0338471 0.503054 0.0952713 0.523536 0.0426357 0.38624 0.00875711 0.584505 0.153328 0.287649 0.0426357 0.225806 0.153328 0.239628 0.391913 0.281994 0.452303 0.808853 0.901493 0.648125 0.964703 0.443583 0.798601 0.354654 0.714368 0.274966 0.872124 0.430116 0.90632 0.676253 0.618933 0.856947 0.563704 0.824893 0.452303 0.765817 0.391913 0.856947 0.871027 0.849353 0.493941 0.175107 0.452303 0.143053 0.563704 0.172044 0.708242 0.251389 0.792644 0.438092 0.991243 0.206697 0.262074 0.150647 0.493941 0.349429 0.693019 0.583214 0.872124 0.754038 0.714368 0.755068 0.693019 0.557637 0.493941 0.401638 0.871027 0.561908 0.991243 0.74861 0.792644 0.827956 0.708242 0.648125 0.303531 0.438092 0.488668 0.569884 0.658787 0.725034 0.583214 0.856947 0.401638 0.808853 0.341757</float_array>
                    <technique_common>
                        <accessor count="47" source="#ID21" stride="2">
                            <param name="S" type="float"/>
                            <param name="T" type="float"/>
                        </accessor>
                    </technique_common>
                </source>
                <vertices id="ID22">
                    <input semantic="POSITION" source="#ID16"/>
                </vertices>
                <polylist count="8" material="Material2">
                    <input offset="0" semantic="VERTEX" source="#ID22"/>
                    <input offset="1" semantic="NORMAL" source="#ID18"/>
                    <input offset="2" semantic="TEXCOORD" source="#ID20" set="0"/>
                    <vcount>4 4 3 4 3 5 5 5</vcount>
                    <p>0 0 3 1 0 2 10 0 1 11 0 0 10 1 7 1 1 6 8 1 5 13 1 4 8 2 5 1 2 6 5 2 8 14 3 12 4 3 11 5 3 10 1 3 9 16 4 14 0 4 3 6 4 13 2 7 24 3 7 23 6 7 13 0 7 3 11 7 0 1 8 2 0 8 3 15 8 27 12 8 26 14 8 25 9 9 29 7 9 28 15 9 27 0 9 3 16 9 14</p>
                </polylist>
                <polylist count="7" material="Material1">
                    <input offset="0" semantic="VERTEX" source="#ID22"/>
                    <input offset="1" semantic="NORMAL" source="#ID18"/>
                    <input offset="2" semantic="TEXCOORD" source="#ID20" set="0"/>
                    <vcount>4 4 5 5 8 7 6</vcount>
                    <p>18 5 18 22 5 17 21 5 16 19 5 15 4 6 22 14 6 21 12 6 20 20 6 19 17 10 32 2 10 31 11 10 30 10 10 7 13 10 4 3 11 37 2 11 36 17 11 35 21 11 34 22 11 33 13 12 4 8 12 5 5 12 8 4 12 22 20 12 19 19 12 15 21 12 16 17 12 32 19 13 15 20 13 19 12 13 20 15 13 40 7 13 39 9 13 38 18 13 18 6 14 46 3 14 45 22 14 44 18 14 43 9 14 42 16 14 41</p>
                </polylist>
            </mesh>
        </geometry>
        <geometry id="ID24">
            <mesh>
                <source id="ID25">
                    <float_array id="ID26" count="54">-1.20092 84.4508 3.93971 0.716554 56.8684 -32.8267 -69.9959 12.506 -27.7883 69.3903 -9.07273 3.44621 -60.5465 8.60192 -40.9733 76.3587 29.9839 -8.56811 8.30593 42.0481 -40.6025 1.33865 49.6728 -46.3076 -75.1908 -4.747 -11.7707 47.3365 36.7286 -22.8369 -34.352 -65.7156 52.2648 -2.20648 -78.3576 44.6196 -53.0977 7.51097 -52.2648 7.41247 -84.4508 32.6434 -76.3587 -60.4076 15.2374 63.3767 -17.176 7.47037 -50.0002 -77.3923 -18.7865 -18.9703 -84.2314 -3.67185</float_array>
                    <technique_common>
                        <accessor count="18" source="#ID26" stride="3">
                            <param name="X" type="float"/>
                            <param name="Y" type="float"/>
                            <param name="Z" type="float"/>
                        </accessor>
                    </technique_common>
                </source>
                <source id="ID27">
                    <float_array id="ID28" count="39">-0.473308 0.692622 -0.544293 0.429652 0.732938 -0.527447 0.401954 0.578312 -0.709921 0.800948 0.54277 -0.252751 -0.526879 0.739474 -0.419019 -0.748638 0.557917 0.358148 0.665085 -0.296869 0.685223 -0.5901 0.362428 0.721407 0.601792 -0.665712 -0.441218 0.309464 0.228712 0.922997 -0.821674 -0.234767 -0.519361 -0.31113 -0.924446 0.220448 0.352907 -0.332051 -0.874756</float_array>
                    <technique_common>
                        <accessor count="13" source="#ID28" stride="3">
                            <param name="X" type="float"/>
                            <param name="Y" type="float"/>
                            <param name="Z" type="float"/>
                        </accessor>
                    </technique_common>
                </source>
                <source id="ID29">
                    <float_array id="ID30" count="88">0.493995 0.480301 0.15002 0.638941 0.197267 0.704866 0.503583 0.664133 0.736683 0.614184 0.881793 0.542841 0.263317 0.683643 0.496417 0.784342 0.45847 0.710241 0.703012 0.710241 0.664133 0.784342 0.731538 0.748364 0.234511 0.761324 0.506693 0.731538 0.361059 0.56253 0.519699 0.922254 0.441147 0.476265 0.488968 0.108212 0.816884 0.41412 0.537062 0.0777462 0.493995 0.922254 0.32824 0.171422 0.118207 0.197962 0.124046 0.476265 0.405149 0.481641 0.537062 0.663217 0.816884 0.537352 0.846951 0.517231 0.881793 0.64992 0.846951 0.454636 0.406068 0.113039 0.238676 0.537555 0.295134 0.54301 0.576187 0.197962 0.249999 0.406068 0.118207 0.576187 0.32824 0.761324 0.488968 0.723098 0.493307 0.748364 0.765489 0.537555 0.750001 0.113039 0.594851 0.0788431 0.153049 0.454636 0.118207 0.64992</float_array>
                    <technique_common>
                        <accessor count="44" source="#ID30" stride="2">
                            <param name="S" type="float"/>
                            <param name="T" type="float"/>
                        </accessor>
                    </technique_common>
                </source>
                <vertices id="ID31">
                    <input semantic="POSITION" source="#ID25"/>
                </vertices>
                <polylist count="9" material="Material2">
                    <input offset="0" semantic="VERTEX" source="#ID31"/>
                    <input offset="1" semantic="NORMAL" source="#ID27"/>
                    <input offset="2" semantic="TEXCOORD" source="#ID29" set="0"/>
                    <vcount>4 4 3 3 4 3 3 4 6</vcount>
                    <p>1 0 3 4 0 2 2 0 1 0 0 0 5 1 5 9 1 4 1 1 3 0 1 0 6 2 8 1 2 7 9 2 6 7 3 11 1 3 10 6 3 9 7 4 13 12 4 12 4 4 2 1 4 3 8 5 16 0 5 15 2 5 14 13 6 19 15 6 18 11 6 17 8 7 23 14 7 22 10 7 21 0 7 20 15 9 18 3 9 29 5 9 28 0 9 20 10 9 21 11 9 17</p>
                </polylist>
                <polylist count="4" material="Material1">
                    <input offset="0" semantic="VERTEX" source="#ID31"/>
                    <input offset="1" semantic="NORMAL" source="#ID27"/>
                    <input offset="2" semantic="TEXCOORD" source="#ID29" set="0"/>
                    <vcount>4 6 6 8</vcount>
                    <p>3 8 27 15 8 26 13 8 25 17 8 24 14 10 33 8 10 16 2 10 14 4 10 32 12 10 31 16 10 30 17 11 24 13 11 25 11 11 37 10 11 36 14 11 35 16 11 34 9 12 6 5 12 43 3 12 42 17 12 41 16 12 40 12 12 39 7 12 38 6 12 8</p>
                </polylist>
            </mesh>
        </geometry>
        <geometry id="ID33">
            <mesh>
                <source id="ID34">
                    <float_array id="ID35" count="45">65.3358 72.9364 -1.0148 59.3956 10.4671 -55.2665 45.4506 73.8378 29.9365 63.9592 80.5171 14.8655 34.4485 -38.7345 -8.15617 32.9487 62.175 37.0181 37.6191 17.1022 -62.1912 -23.0156 -5.09983 62.1912 -24.5345 -80.5171 30.9913 -21.3257 -78.2441 28.8616 38.9622 70.2782 32.9939 -65.3358 -36.4317 -8.28885 -49.3983 -4.88043 25.8759 -64.2908 -40.7015 -8.49482 -61.4985 -35.94 -13.0453</float_array>
                    <technique_common>
                        <accessor count="15" source="#ID35" stride="3">
                            <param name="X" type="float"/>
                            <param name="Y" type="float"/>
                            <param name="Z" type="float"/>
                        </accessor>
                    </technique_common>
                </source>
                <source id="ID36">
                    <float_array id="ID37" count="27">0.401954 0.578312 -0.709921 0.938402 -0.273094 0.211711 0.309464 0.228712 0.922997 -0.760854 -0.155828 -0.629936 -0.601792 0.665712 0.441218 0.665085 -0.296869 0.685223 -0.577555 0.716122 -0.391918 -0.789688 -0.220882 0.572367 0.0163238 -0.695804 -0.718047</float_array>
                    <technique_common>
                        <accessor count="9" source="#ID37" stride="3">
                            <param name="X" type="float"/>
                            <param name="Y" type="float"/>
                            <param name="Z" type="float"/>
                        </accessor>
                    </technique_common>
                </source>
                <source id="ID38">
                    <float_array id="ID39" count="72">0.203022 0.552335 0.173321 0.864682 0.311904 0.585511 0.505074 0.864682 0.776332 0.552335 0.540781 0.306327 0.425672 0.902586 0.694811 0.851391 0.727253 0.869189 0.664743 0.810875 0.457526 0.296493 0.434773 0.3203 0.458556 0.317842 0.664743 0.31491 0.384922 0.189044 0.253008 0.370621 0.694811 0.33503 0.384922 0.474501 0.819796 0.902586 0.672242 0.306327 0.393371 0.10878 0.377328 0.0974144 0.192508 0.565227 0.688096 0.810956 0.826679 0.505074 0.819796 0.425672 0.727253 0.350318 0.173321 0.541444 0.629379 0.475598 0.810956 0.474501 0.654956 0.0974144 0.807492 0.3203 0.821454 0.296493 0.622672 0.0974144 0.606629 0.10878 0.327758 0.306327</float_array>
                    <technique_common>
                        <accessor count="36" source="#ID39" stride="2">
                            <param name="S" type="float"/>
                            <param name="T" type="float"/>
                        </accessor>
                    </technique_common>
                </source>
                <vertices id="ID40">
                    <input semantic="POSITION" source="#ID34"/>
                </vertices>
                <polylist count="4" material="Material2">
                    <input offset="0" semantic="VERTEX" source="#ID40"/>
                    <input offset="1" semantic="NORMAL" source="#ID36"/>
                    <input offset="2" semantic="TEXCOORD" source="#ID38" set="0"/>
                    <vcount>3 4 3 7</vcount>
                    <p>6 0 2 0 0 1 1 0 0 3 1 6 4 1 5 1 1 4 0 1 3 5 2 9 2 2 8 10 2 7 8 5 21 9 5 20 4 5 19 3 5 18 2 5 8 5 5 9 7 5 17</p>
                </polylist>
                <polylist count="5" material="Material1">
                    <input offset="0" semantic="VERTEX" source="#ID40"/>
                    <input offset="1" semantic="NORMAL" source="#ID36"/>
                    <input offset="2" semantic="TEXCOORD" source="#ID38" set="0"/>
                    <vcount>3 4 8 5 7</vcount>
                    <p>11 3 12 14 3 11 13 3 10 10 4 16 12 4 15 7 4 14 5 4 13 11 6 27 12 6 15 10 6 16 2 6 26 3 6 25 0 6 24 6 6 23 14 6 22 11 7 12 13 7 10 8 7 30 7 7 29 12 7 28 1 8 0 4 8 35 9 8 34 8 8 33 13 8 32 14 8 31 6 8 2</p>
                </polylist>
            </mesh>
        </geometry>
        <geometry id="ID42">
            <mesh>
                <source id="ID43">
                    <float_array id="ID44" count="78">79.2277 47.986 78.1992 -10.891 9.43735 -93.3918 28.7706 69.7835 67.3872 49.4812 -29.1938 -1.51479 -10.26 75.103 49.6217 77.1979 26.6404 59.6616 44.2168 -31.2779 -6.1932 -78.6015 7.87086 -11.0164 -79.2277 4.91968 -15.4371 -71.6637 40.5659 37.9593 -12.7237 8.70575 -92.6766 57.3127 27.5418 90.6128 15.5933 -38.5522 -71.9663 -11.2297 8.11466 -93.6703 -17.2273 82.7277 43.9165 57.7927 63.0388 81.656 28.184 -33.4734 -61.7148 -76.3746 5.07763 -18.7458 75.8214 34.2211 75.5419 50.8243 23.9822 93.6703 -39.2128 7.13503 -61.8428 -49.6364 -82.236 47.631 -53.4737 -82.7277 52.3875 -71.2595 -65.8811 53.4573 -68.5661 -44.3374 71.4376 -37.5362 -51.1765 86.5523</float_array>
                    <technique_common>
                        <accessor count="26" source="#ID44" stride="3">
                            <param name="X" type="float"/>
                            <param name="Y" type="float"/>
                            <param name="Z" type="float"/>
                        </accessor>
                    </technique_common>
                </source>
                <source id="ID45">
                    <float_array id="ID46" count="48">0.429652 0.732938 -0.527447 -0.46304 0.811501 -0.356454 0.665085 -0.296869 0.685223 0.938402 -0.273094 0.211711 0.309464 0.228712 0.922997 0.630946 0.00182884 -0.775824 -0.446689 0.292417 -0.845554 -0.462539 -0.533299 0.708273 0.401954 0.578312 -0.709921 0.800948 0.54277 -0.252751 -0.526879 0.739474 -0.419019 -0.352907 0.332051 0.874756 0.577555 -0.716122 0.391918 0.434804 -0.896004 -0.0901252 -0.99136 0.0152044 0.130284 -0.595079 -0.593871 -0.541478</float_array>
                    <technique_common>
                        <accessor count="16" source="#ID46" stride="3">
                            <param name="X" type="float"/>
                            <param name="Y" type="float"/>
                            <param name="Z" type="float"/>
                        </accessor>
                    </technique_common>
                </source>
                <source id="ID47">
                    <float_array id="ID48" count="132">0.643853 0.163064 0.896138 0.109004 0.788964 0.0917201 0.436381 0.963383 0.445545 0.966959 0.303936 0.809214 0.786564 0.637709 0.896138 0.73993 0.879107 0.671106 0.12229 0.671106 0.109004 0.73993 0.201692 0.633202 0.788964 0.815194 0.754122 0.619911 0.556148 0.540573 0.422033 0.307239 0.35908 0.332633 0.554455 0.547187 0.563619 0.543529 0.143702 0.170595 0.157169 0.278313 0.312319 0.244118 0.232632 0.0863614 0.11401 0.633202 0.103862 0.73993 0.356147 0.848917 0.5513 0.875515 0.278916 0.343611 0.252594 0.354031 0.280417 0.913639 0.966959 0.547187 0.808574 0.332633 0.530966 0.343611 0.251892 0.875515 0.106993 0.555082 0.103862 0.577186 0.118127 0.593729 0.413864 0.280417 0.141682 0.310203 0.643853 0.848917 0.141682 0.702829 0.413864 0.913639 0.4487 0.875515 0.747406 0.492426 0.251818 0.738155 0.232632 0.761938 0.312319 0.932761 0.754122 0.968352 0.786564 0.953064 0.879107 0.87771 0.88599 0.798308 0.64092 0.191426 0.577967 0.140169 0.721084 0.469034 0.857188 0.278313 0.767286 0.170595 0.422814 0.524598 0.444918 0.539354 0.689797 0.702829 0.738155 0.08882 0.140169 0.307239 0.0316484 0.540573 0.0366169 0.543529 0.190786 0.535675 0.406271 0.525388 0.761938 0.0863614</float_array>
                    <technique_common>
                        <accessor count="66" source="#ID48" stride="2">
                            <param name="S" type="float"/>
                            <param name="T" type="float"/>
                        </accessor>
                    </technique_common>
                </source>
                <vertices id="ID49">
                    <input semantic="POSITION" source="#ID43"/>
                </vertices>
                <polylist count="10" material="Material2">
                    <input offset="0" semantic="VERTEX" source="#ID49"/>
                    <input offset="1" semantic="NORMAL" source="#ID45"/>
                    <input offset="2" semantic="TEXCOORD" source="#ID47" set="0"/>
                    <vcount>3 3 3 3 4 4 3 6 5 7</vcount>
                    <p>15 0 2 0 0 1 2 0 0 20 1 5 1 1 4 10 1 3 18 2 8 0 2 7 11 2 6 5 3 11 0 3 10 18 3 9 19 4 13 11 4 6 0 4 7 15 4 12 1 5 17 16 5 16 12 5 15 13 5 14 10 6 18 1 6 17 13 6 14 3 8 28 6 8 27 4 8 26 2 8 25 0 8 24 5 8 23 4 9 33 6 9 32 16 9 31 1 9 30 14 9 29 9 10 38 14 10 37 1 10 4 20 10 5 17 10 36 8 10 35 7 10 34</p>
                </polylist>
                <polylist count="6" material="Material1">
                    <input offset="0" semantic="VERTEX" source="#ID49"/>
                    <input offset="1" semantic="NORMAL" source="#ID45"/>
                    <input offset="2" semantic="TEXCOORD" source="#ID47" set="0"/>
                    <vcount>4 8 8 5 5 9</vcount>
                    <p>22 7 22 25 7 21 24 7 20 23 7 19 4 11 42 14 11 41 9 11 40 24 11 20 25 11 21 19 11 13 15 11 12 2 11 39 5 12 50 18 12 49 11 12 48 19 12 47 25 12 46 22 12 45 21 12 44 3 12 43 6 13 53 3 13 43 21 13 44 12 13 52 16 13 51 9 14 58 7 14 57 8 14 56 23 14 55 24 14 54 22 15 65 23 15 55 8 15 56 17 15 64 20 15 63 10 15 62 13 15 61 12 15 60 21 15 59</p>
                </polylist>
            </mesh>
        </geometry>
        <geometry id="ID51">
            <mesh>
                <source id="ID52">
                    <float_array id="ID53" count="75">26.4966 25.9599 -82.7467 -74.5664 -28.7233 47.8988 20.8438 112.198 -32.5533 -19.1712 109.983 13.8524 48.0033 -57.9253 -12.8376 -20.7507 108.817 13.7808 47.3328 113.769 -63.3871 -1.79457 -112.718 74.2446 75.6499 66.5109 -42.6768 -42.7577 77.8057 -28.2313 -23.0972 -101.484 76.8327 -75.6499 -42.1556 80.4102 -58.3276 39.5161 -33.2477 -2.74913 -113.769 75.9138 -16.3181 110.141 10.5436 -74.375 -26.3511 42.1571 72.8944 27.1445 -45.0105 -39.3875 -89.8727 77.6458 48.8269 113.178 -64.3808 -26.9336 104.908 12.9148 7.62783 18.0656 81.471 -57.737 3.24829 82.0543 -11.203 39.182 82.7467 6.58282 22.3353 81.677 10.4202 22.827 76.9205</float_array>
                    <technique_common>
                        <accessor count="25" source="#ID53" stride="3">
                            <param name="X" type="float"/>
                            <param name="Y" type="float"/>
                            <param name="Z" type="float"/>
                        </accessor>
                    </technique_common>
                </source>
                <source id="ID54">
                    <float_array id="ID55" count="42">-0.526879 0.739474 -0.419019 0.575907 -0.431186 -0.694558 -0.775431 -0.574048 -0.263014 0.630946 0.00182884 -0.775824 0.760854 0.155828 0.629936 -0.46304 0.811501 -0.356454 -0.41699 -0.642604 -0.64279 -0.468902 -0.613348 -0.635559 -0.446689 0.292417 -0.845554 0.595079 0.593871 0.541478 -0.4653 0.589846 0.659983 -0.925156 0.360714 0.1182 0.0187937 -0.0435848 0.998873 0.887728 -0.0889155 0.4517</float_array>
                    <technique_common>
                        <accessor count="14" source="#ID55" stride="3">
                            <param name="X" type="float"/>
                            <param name="Y" type="float"/>
                            <param name="Z" type="float"/>
                        </accessor>
                    </technique_common>
                </source>
                <source id="ID56">
                    <float_array id="ID57" count="106">0.418409 0.447282 0.396247 0.431096 0.604219 0.662767 0.135528 0.635723 0.367517 0.629799 0.259984 0.210374 0.739494 0.356384 0.888229 0.0506366 0.710786 0.368245 0.121751 0.832554 0.255866 1.06589 0.091615 0.611677 0.115397 0.614135 0.0926448 0.590328 0.404144 0.430738 0.902051 0.289222 0.365332 0.435426 0.286212 0.641156 0.736664 0.816936 0.615486 -0.00741982 0.513746 -0.0688441 0.508973 -0.0635924 0.696938 0.0506366 0.791638 0.69758 0.871875 0.368245 0.263336 1.06884 0.713788 0.889029 0.430738 1.04991 0.447282 1.0507 0.662767 1.06099 0.816936 1.06884 0.821904 1.06589 0.713384 0.832554 0.0862664 0.69591 0.396247 1.04408 0.404144 1.04991 0.443985 0.69591 0.211315 0.516241 0.365332 1.02454 0.358844 0.889029 0.564574 1.02454 0.910272 0.516241 0.333761 0.69758 0.486254 -0.0688441 0.384514 -0.00741982 0.303062 0.0506366 0.121751 0.289222 0.532914 0.611677 0.538139 0.590328 0.725053 0.635723 0.564188 0.210374 0.128777 -0.0635924 0.120431 -0.0688441</float_array>
                    <technique_common>
                        <accessor count="53" source="#ID57" stride="2">
                            <param name="S" type="float"/>
                            <param name="T" type="float"/>
                        </accessor>
                    </technique_common>
                </source>
                <vertices id="ID58">
                    <input semantic="POSITION" source="#ID52"/>
                </vertices>
                <polylist count="10" material="Material2">
                    <input offset="0" semantic="VERTEX" source="#ID58"/>
                    <input offset="1" semantic="NORMAL" source="#ID54"/>
                    <input offset="2" semantic="TEXCOORD" source="#ID56" set="0"/>
                    <vcount>3 3 3 4 3 3 5 5 5 5</vcount>
                    <p>2 0 2 5 0 1 14 0 0 4 1 5 0 1 4 16 1 3 15 2 8 17 2 7 1 2 6 18 3 10 8 3 9 16 3 3 0 3 4 5 0 1 3 0 14 14 0 0 17 2 7 11 2 15 1 2 6 6 5 18 9 5 17 19 5 16 5 5 1 2 5 2 4 6 5 7 6 21 13 6 20 10 6 19 0 6 4 15 7 24 12 7 23 0 7 4 10 7 19 17 7 22 9 8 26 6 8 25 18 8 10 0 8 4 12 8 23</p>
                </polylist>
                <polylist count="6" material="Material1">
                    <input offset="0" semantic="VERTEX" source="#ID58"/>
                    <input offset="1" semantic="NORMAL" source="#ID54"/>
                    <input offset="2" semantic="TEXCOORD" source="#ID56" set="0"/>
                    <vcount>3 9 5 7 8 7</vcount>
                    <p>20 4 13 24 4 12 23 4 11 22 9 33 23 9 11 24 9 12 8 9 32 18 9 31 6 9 30 2 9 29 14 9 28 3 9 27 19 10 38 21 10 37 22 10 36 3 10 35 5 10 34 12 11 42 15 11 8 1 11 6 11 11 15 21 11 41 19 11 40 9 11 39 20 12 48 23 12 47 22 12 36 21 12 37 11 12 46 17 12 45 10 12 44 13 12 43 20 13 13 13 13 52 7 13 51 4 13 50 16 13 49 8 13 32 24 13 12</p>
                </polylist>
            </mesh>
        </geometry>
        <geometry id="ID60">
            <mesh>
                <source id="ID61">
                    <float_array id="ID62" count="54">63.1619 58.3388 -38.6172 3.60236 -105.671 13.816 -66.0771 -82.917 36.2713 11.3673 96.3124 -80.6501 -67.0317 -83.9673 37.9405 67.0317 99.0356 -3.27393 23.958 101.391 -70.3986 39.9908 103.587 -14.877 8.61179 56.946 -82.9838 -64.0171 -88.9853 41.0014 45.2552 105.671 -10.1986 -16.8984 8.05138 82.9838 -13.6897 10.3244 80.8542 -28.1084 -38.3219 73.7734 42.0845 49.834 43.8364 -16.2793 -28.1238 -50.8109 -53.8624 52.6285 38.9472 -56.6547 47.867 43.4977</float_array>
                    <technique_common>
                        <accessor count="18" source="#ID62" stride="3">
                            <param name="X" type="float"/>
                            <param name="Y" type="float"/>
                            <param name="Z" type="float"/>
                        </accessor>
                    </technique_common>
                </source>
                <source id="ID63">
                    <float_array id="ID64" count="36">0.401954 0.578312 -0.709921 0.800948 0.54277 -0.252751 0.159591 -0.613429 0.773457 0.938402 -0.273094 0.211711 0.575907 -0.431186 -0.694558 0.630946 0.00182884 -0.775824 0.665085 -0.296869 0.685223 -0.41699 -0.642604 -0.64279 -0.692241 0.0240843 0.721264 -0.887728 0.0889155 -0.4517 -0.0163238 0.695804 0.718047 -0.434804 0.896004 0.0901252</float_array>
                    <technique_common>
                        <accessor count="12" source="#ID64" stride="3">
                            <param name="X" type="float"/>
                            <param name="Y" type="float"/>
                            <param name="Z" type="float"/>
                        </accessor>
                    </technique_common>
                </source>
                <source id="ID65">
                    <float_array id="ID66" count="82">0.184191 0.791694 0.164841 0.995178 0.273724 1.02835 0.300046 1.01793 0.851993 1.00696 0.693086 0.791694 0.574385 1.01793 0.359458 0.308391 0.518012 -0.0283537 0.179915 0.0550734 0.280818 0.74917 0.51637 0.995178 0.43092 -0.0283537 0.456941 0.78473 0.581397 0.359381 0.481988 -0.0283537 0.443164 0.981562 0.38021 1.00696 0.415508 0.540257 0.431552 0.551622 0.710423 0.74917 0.820085 0.0550734 0.830386 0.085415 0.835159 0.0801634 0.216726 0.739335 0.164841 0.0801634 0.0850809 0.78473 0.0967495 0.981562 0.694736 0.763143 0.717489 0.739335 0.689703 0.0801634 0.681356 0.085415 0.245945 0.359381 0.726276 1.02835 0.835159 0.995178 0.230688 0.763143 0.230688 0.305264 0.556836 0.90325 0.61979 0.851993 0.699954 0.574385 0.726276 0.550993</float_array>
                    <technique_common>
                        <accessor count="41" source="#ID66" stride="2">
                            <param name="S" type="float"/>
                            <param name="T" type="float"/>
                        </accessor>
                    </technique_common>
                </source>
                <vertices id="ID67">
                    <input semantic="POSITION" source="#ID61"/>
                </vertices>
                <polylist count="8" material="Material2">
                    <input offset="0" semantic="VERTEX" source="#ID67"/>
                    <input offset="1" semantic="NORMAL" source="#ID63"/>
                    <input offset="2" semantic="TEXCOORD" source="#ID65" set="0"/>
                    <vcount>4 3 3 4 4 4 5 5</vcount>
                    <p>7 0 3 10 0 2 5 0 1 0 0 0 7 1 6 0 1 5 6 1 4 9 2 9 1 2 8 13 2 7 1 3 12 0 3 5 5 3 11 14 3 10 1 4 15 15 4 14 8 4 13 0 4 0 6 5 17 0 5 0 8 5 13 3 5 16 1 6 8 14 6 20 12 6 19 11 6 18 13 6 7 4 7 23 2 7 22 15 7 14 1 7 15 9 7 21</p>
                </polylist>
                <polylist count="4" material="Material1">
                    <input offset="0" semantic="VERTEX" source="#ID67"/>
                    <input offset="1" semantic="NORMAL" source="#ID63"/>
                    <input offset="2" semantic="TEXCOORD" source="#ID65" set="0"/>
                    <vcount>5 7 7 5</vcount>
                    <p>4 8 25 9 8 9 13 8 7 11 8 18 17 8 24 15 9 32 2 9 31 4 9 30 17 9 29 16 9 28 3 9 27 8 9 26 16 10 35 17 10 24 11 10 18 12 10 19 14 10 20 5 10 34 10 10 33 10 11 40 7 11 39 6 11 38 3 11 37 16 11 36</p>
                </polylist>
            </mesh>
        </geometry>
        <geometry id="ID69">
            <mesh>
                <source id="ID70">
                    <float_array id="ID71" count="60">-58.7048 -49.216 14.329 -5.29077 33.1964 -2.40012 38.7091 79.2107 17.8924 48.0432 38.5695 -59.9805 -26.6616 -79.2107 23.2247 32.3463 6.29714 60.9181 -58.3946 -48.4116 11.659 -23.2581 9.93713 -32.012 -55.0908 -54.1288 14.3968 48.1584 75.3067 4.70743 55.6072 74.2157 -6.58407 48.6695 41.5207 -55.5598 40.2808 33.4952 -60.9181 46.4637 37.4036 -60.052 -4.99416 -33.4227 50.3291 -20.8632 -50.303 45.8289 33.5142 61.9578 33.91 9.47738 -68.1649 8.22146 56.0114 -32.2313 8.91386 58.7048 -10.6875 26.8942</float_array>
                    <technique_common>
                        <accessor count="20" source="#ID71" stride="3">
                            <param name="X" type="float"/>
                            <param name="Y" type="float"/>
                            <param name="Z" type="float"/>
                        </accessor>
                    </technique_common>
                </source>
                <source id="ID72">
                    <float_array id="ID73" count="39">-0.473308 0.692622 -0.544293 -0.46304 0.811501 -0.356454 -0.830561 0.552515 0.0699677 -0.748638 0.557917 0.358148 -0.775431 -0.574048 -0.263014 -0.587053 -0.422311 0.690668 -0.526879 0.739474 -0.419019 -0.5901 0.362428 0.721407 0.45603 -0.603167 0.65439 0.821674 0.234767 0.519361 -0.19134 -0.511679 -0.8376 0.99136 -0.0152044 -0.130284 0.4653 -0.589846 -0.659983</float_array>
                    <technique_common>
                        <accessor count="13" source="#ID73" stride="3">
                            <param name="X" type="float"/>
                            <param name="Y" type="float"/>
                            <param name="Z" type="float"/>
                        </accessor>
                    </technique_common>
                </source>
                <source id="ID74">
                    <float_array id="ID75" count="88">0.693545 0.410538 0.473546 0.512001 0.740792 0.476463 0.732319 0.80026 0.38371 0.66006 0.701404 0.80459 0.558295 0.257942 0.33994 0.549686 0.487999 0.665982 0.571645 0.25392 0.589462 0.896054 0.66955 0.809789 0.571984 0.229356 0.395684 0.248485 0.366692 0.103946 0.224546 0.229356 0.206476 0.25392 0.778036 0.53292 0.740216 0.799903 0.743347 0.777799 0.667571 0.809789 0.661731 0.531486 0.475029 0.332886 0.793524 0.446562 0.780057 0.338844 0.547387 0.159175 0.476463 0.876533 0.53292 0.871079 0.365529 0.446562 0.19541 0.531486 0.33045 0.809789 0.410538 0.896054 0.61629 0.549686 0.791973 0.257942 0.775454 0.229356 0.633308 0.103946 0.452613 0.159175 0.298596 0.667476 0.777799 0.707604 0.799902 0.692848 0.455431 0.338844 0.219943 0.338844 0.259784 0.692848 0.267681 0.687018</float_array>
                    <technique_common>
                        <accessor count="44" source="#ID75" stride="2">
                            <param name="S" type="float"/>
                            <param name="T" type="float"/>
                        </accessor>
                    </technique_common>
                </source>
                <vertices id="ID76">
                    <input semantic="POSITION" source="#ID70"/>
                </vertices>
                <polylist count="8" material="Material2">
                    <input offset="0" semantic="VERTEX" source="#ID76"/>
                    <input offset="1" semantic="NORMAL" source="#ID72"/>
                    <input offset="2" semantic="TEXCOORD" source="#ID74" set="0"/>
                    <vcount>3 4 4 4 3 4 6 5</vcount>
                    <p>9 0 2 1 0 1 2 0 0 12 1 5 7 1 4 1 1 1 13 1 3 0 2 9 1 2 8 7 2 7 6 2 6 0 3 9 16 3 11 2 3 10 1 3 8 8 4 12 0 4 9 6 4 6 0 5 16 8 5 15 4 5 14 15 5 13 11 6 19 3 6 18 13 6 3 1 6 1 9 6 2 10 6 17 14 7 22 5 7 21 16 7 20 0 7 16 15 7 13</p>
                </polylist>
                <polylist count="5" material="Material1">
                    <input offset="0" semantic="VERTEX" source="#ID76"/>
                    <input offset="1" semantic="NORMAL" source="#ID72"/>
                    <input offset="2" semantic="TEXCOORD" source="#ID74" set="0"/>
                    <vcount>7 6 6 5 5</vcount>
                    <p>15 8 13 4 8 14 17 8 25 18 8 24 19 8 23 5 8 21 14 8 22 2 9 31 16 9 30 5 9 29 19 9 28 10 9 27 9 9 26 12 10 37 17 10 36 4 10 35 8 10 34 6 10 33 7 10 32 10 11 27 19 11 28 18 11 40 3 11 39 11 11 38 17 12 36 12 12 37 13 12 43 3 12 42 18 12 41</p>
                </polylist>
            </mesh>
        </geometry>
        <geometry id="ID78">
            <mesh>
                <source id="ID79">
                    <float_array id="ID80" count="39">-39.4339 17.3095 -31.67 0.621432 -73.532 48.5053 33.5136 46.4293 -60.1362 49.3377 73.532 -18.9902 -49.3377 -8.37484 53.5869 -17.6047 -39.1739 65.1526 1.89627 -57.7275 10.2522 -46.034 -14.092 56.3248 -14.2012 49.9739 9.9159 17.9437 8.13966 -65.1526 1.70492 -60.0997 15.9938 -11.1938 -61.4541 56.9785 18.5343 -28.1281 50.1494</float_array>
                    <technique_common>
                        <accessor count="13" source="#ID80" stride="3">
                            <param name="X" type="float"/>
                            <param name="Y" type="float"/>
                            <param name="Z" type="float"/>
                        </accessor>
                    </technique_common>
                </source>
                <source id="ID81">
                    <float_array id="ID82" count="27">-0.46304 0.811501 -0.356454 -0.830561 0.552515 0.0699677 -0.468902 -0.613348 -0.635559 -0.587053 -0.422311 0.690668 -0.446689 0.292417 -0.845554 0.427284 -0.200497 0.881606 -0.775431 -0.574048 -0.263014 0.19134 0.511679 0.8376 0.925156 -0.360714 -0.1182</float_array>
                    <technique_common>
                        <accessor count="9" source="#ID82" stride="3">
                            <param name="X" type="float"/>
                            <param name="Y" type="float"/>
                            <param name="Z" type="float"/>
                        </accessor>
                    </technique_common>
                </source>
                <source id="ID83">
                    <float_array id="ID84" count="62">0.667568 0.800681 0.746689 0.594951 0.428994 0.45042 0.302831 0.65835 0.767935 0.458126 0.34165 0.586548 0.54958 0.74987 0.410281 0.540698 0.697169 0.586548 0.490519 0.211363 0.411977 0.30413 0.444031 0.192729 0.26983 0.42954 0.332432 0.732147 0.592671 0.359359 0.503107 0.13234 0.784892 0.192729 0.742526 0.13234 0.579969 0.199502 0.551261 0.211363 0.781624 0.42954 0.253311 0.458126 0.428994 0.74987 0.746689 0.86766 0.257474 0.13234 0.249253 0.359359 0.594951 0.86766 0.800681 0.732147 0.825763 0.540698 0.448739 0.211363 0.420031 0.199502</float_array>
                    <technique_common>
                        <accessor count="31" source="#ID84" stride="2">
                            <param name="S" type="float"/>
                            <param name="T" type="float"/>
                        </accessor>
                    </technique_common>
                </source>
                <vertices id="ID85">
                    <input semantic="POSITION" source="#ID79"/>
                </vertices>
                <polylist count="6" material="Material2">
                    <input offset="0" semantic="VERTEX" source="#ID85"/>
                    <input offset="1" semantic="NORMAL" source="#ID81"/>
                    <input offset="2" semantic="TEXCOORD" source="#ID83" set="0"/>
                    <vcount>4 3 3 3 3 7</vcount>
                    <p>0 0 3 8 0 2 3 0 1 2 0 0 8 1 6 0 1 5 4 1 4 6 2 9 0 2 8 9 2 7 7 3 12 11 3 11 5 3 10 9 4 7 0 4 8 2 4 13 7 6 20 4 6 4 0 6 5 6 6 19 10 6 18 1 6 17 11 6 16</p>
                </polylist>
                <polylist count="3" material="Material1">
                    <input offset="0" semantic="VERTEX" source="#ID85"/>
                    <input offset="1" semantic="NORMAL" source="#ID81"/>
                    <input offset="2" semantic="TEXCOORD" source="#ID83" set="0"/>
                    <vcount>4 6 7</vcount>
                    <p>1 5 15 12 5 14 5 5 10 11 5 11 5 7 10 12 7 14 3 7 23 8 7 22 4 7 21 7 7 12 10 8 30 6 8 29 9 8 28 2 8 27 3 8 26 12 8 25 1 8 24</p>
                </polylist>
            </mesh>
        </geometry>
    </library_geometries>
    <library_visual_scenes>
        <visual_scene id="ID13">
            <node id="ID14" name="Pieces_1">
                <translate sid="translate">-11.1327 -54.7819 -104.902</translate>
                <rotate sid="rotateY">0 1 0 215.894</rotate>
                <rotate sid="rotateX">1 0 0 0</rotate>
                <rotate sid="rotateZ">0 0 1 -0</rotate>
                <scale sid="scale">1 1 1</scale>
                <instance_geometry url="#ID15">
                    <bind_material>
                        <technique_common>
                            <instance_material symbol="Material1" target="#ID3">
                                <bind_vertex_input semantic="UVSET0" input_semantic="TEXCOORD" input_set="0"/>
                            </instance_material>
                            <instance_material symbol="Material2" target="#ID8">
                                <bind_vertex_input semantic="UVSET0" input_semantic="TEXCOORD" input_set="0"/>
                            </instance_material>
                        </technique_common>
                    </bind_material>
                </instance_geometry>
            </node>
            <node id="ID23" name="Pieces_2">
                <translate sid="translate">-89.2836 103.874 -103.025</translate>
                <rotate sid="rotateY">0 1 0 215.894</rotate>
                <rotate sid="rotateX">1 0 0 0</rotate>
                <rotate sid="rotateZ">0 0 1 -0</rotate>
                <scale sid="scale">1 1 1</scale>
                <instance_geometry url="#ID24">
                    <bind_material>
                        <technique_common>
                            <instance_material symbol="Material1" target="#ID3">
                                <bind_vertex_input semantic="UVSET0" input_semantic="TEXCOORD" input_set="0"/>
                            </instance_material>
                            <instance_material symbol="Material2" target="#ID8">
                                <bind_vertex_input semantic="UVSET0" input_semantic="TEXCOORD" input_set="0"/>
                            </instance_material>
                        </technique_common>
                    </bind_material>
                </instance_geometry>
            </node>
            <node id="ID32" name="Pieces_3">
                <translate sid="translate">-62.6821 24.5234 -15.1085</translate>
                <rotate sid="rotateY">0 1 0 215.894</rotate>
                <rotate sid="rotateX">1 0 0 0</rotate>
                <rotate sid="rotateZ">0 0 1 -0</rotate>
                <scale sid="scale">1 1 1</scale>
                <instance_geometry url="#ID33">
                    <bind_material>
                        <technique_common>
                            <instance_material symbol="Material1" target="#ID3">
                                <bind_vertex_input semantic="UVSET0" input_semantic="TEXCOORD" input_set="0"/>
                            </instance_material>
                            <instance_material symbol="Material2" target="#ID8">
                                <bind_vertex_input semantic="UVSET0" input_semantic="TEXCOORD" input_set="0"/>
                            </instance_material>
                        </technique_common>
                    </bind_material>
                </instance_geometry>
            </node>
            <node id="ID41" name="Pieces_4">
                <translate sid="translate">-78.2017 70.8194 70.0567</translate>
                <rotate sid="rotateY">0 1 0 215.894</rotate>
                <rotate sid="rotateX">1 0 0 0</rotate>
                <rotate sid="rotateZ">0 0 1 -0</rotate>
                <scale sid="scale">1 1 1</scale>
                <instance_geometry url="#ID42">
                    <bind_material>
                        <technique_common>
                            <instance_material symbol="Material1" target="#ID3">
                                <bind_vertex_input semantic="UVSET0" input_semantic="TEXCOORD" input_set="0"/>
                            </instance_material>
                            <instance_material symbol="Material2" target="#ID8">
                                <bind_vertex_input semantic="UVSET0" input_semantic="TEXCOORD" input_set="0"/>
                            </instance_material>
                        </technique_common>
                    </bind_material>
                </instance_geometry>
            </node>
            <node id="ID50" name="Pieces_5">
                <translate sid="translate">113.208 -85.7679 101.914</translate>
                <rotate sid="rotateY">0 1 0 215.894</rotate>
                <rotate sid="rotateX">1 0 0 0</rotate>
                <rotate sid="rotateZ">0 0 1 -0</rotate>
                <scale sid="scale">1 1 1</scale>
                <instance_geometry url="#ID51">
                    <bind_material>
                        <technique_common>
                            <instance_material symbol="Material1" target="#ID3">
                                <bind_vertex_input semantic="UVSET0" input_semantic="TEXCOORD" input_set="0"/>
                            </instance_material>
                            <instance_material symbol="Material2" target="#ID8">
                                <bind_vertex_input semantic="UVSET0" input_semantic="TEXCOORD" input_set="0"/>
                            </instance_material>
                        </technique_common>
                    </bind_material>
                </instance_geometry>
            </node>
            <node id="ID59" name="Pieces_6">
                <translate sid="translate">-63.7834 -64.0451 49.8689</translate>
                <rotate sid="rotateY">0 1 0 215.894</rotate>
                <rotate sid="rotateX">1 0 0 0</rotate>
                <rotate sid="rotateZ">0 0 1 -0</rotate>
                <scale sid="scale">1 1 1</scale>
                <instance_geometry url="#ID60">
                    <bind_material>
                        <technique_common>
                            <instance_material symbol="Material1" target="#ID3">
                                <bind_vertex_input semantic="UVSET0" input_semantic="TEXCOORD" input_set="0"/>
                            </instance_material>
                            <instance_material symbol="Material2" target="#ID8">
                                <bind_vertex_input semantic="UVSET0" input_semantic="TEXCOORD" input_set="0"/>
                            </instance_material>
                        </technique_common>
                    </bind_material>
                </instance_geometry>
            </node>
            <node id="ID68" name="Pieces_7">
                <translate sid="translate">108.375 35.9967 -118.6</translate>
                <rotate sid="rotateY">0 1 0 215.894</rotate>
                <rotate sid="rotateX">1 0 0 0</rotate>
                <rotate sid="rotateZ">0 0 1 -0</rotate>
                <scale sid="scale">1 1 1</scale>
                <instance_geometry url="#ID69">
                    <bind_material>
                        <technique_common>
                            <instance_material symbol="Material1" target="#ID3">
                                <bind_vertex_input semantic="UVSET0" input_semantic="TEXCOORD" input_set="0"/>
                            </instance_material>
                            <instance_material symbol="Material2" target="#ID8">
                                <bind_vertex_input semantic="UVSET0" input_semantic="TEXCOORD" input_set="0"/>
                            </instance_material>
                        </technique_common>
                    </bind_material>
                </instance_geometry>
            </node>
            <node id="ID77" name="Pieces_8">
                <translate sid="translate">91.4073 -2.86723 -54.9556</translate>
                <rotate sid="rotateY">0 1 0 215.894</rotate>
                <rotate sid="rotateX">1 0 0 0</rotate>
                <rotate sid="rotateZ">0 0 1 -0</rotate>
                <scale sid="scale">1 1 1</scale>
                <instance_geometry url="#ID78">
                    <bind_material>
                        <technique_common>
                            <instance_material symbol="Material1" target="#ID3">
                                <bind_vertex_input semantic="UVSET0" input_semantic="TEXCOORD" input_set="0"/>
                            </instance_material>
                            <instance_material symbol="Material2" target="#ID8">
                                <bind_vertex_input semantic="UVSET0" input_semantic="TEXCOORD" input_set="0"/>
                            </instance_material>
                        </technique_common>
                    </bind_material>
                </instance_geometry>
            </node>
        </visual_scene>
    </library_visual_scenes>
    <scene>
        <instance_visual_scene url="#ID13"/>
    </scene>
</COLLADA>
